<svg xmlns="http://www.w3.org/2000/svg" xmlns:xlink="http://www.w3.org/1999/xlink" width="680" height="396" viewBox="0 0 680 396" fill="none"><defs><path id="path_0"
        transform="translate(0 0.07313537870702737) rotate(0 14.70783754870408 14.728417602265429)"
        d="M0,29.46L29.42,29.46L29.42,0L0,0L0,29.46Z" /><path id="path_1"
        transform="translate(0.1094057051349559 0.28054576488159894) rotate(0 98.7847038594402 49.10881059313)"
        d="M188.58,98.22L197.57,75.76L8.99,0L0,22.46L188.58,98.22Z" /><linearGradient id="linear_0" x1="2.2740771067755987%" y1="11.436100892204884%" x2="97.72581140864311%" y2="88.56372944932816%" gradientUnits="objectBoundingBox"><stop offset="0" stop-color="#D4EEFF" stop-opacity="1" /><stop offset="1" stop-color="#D4EEFF" stop-opacity="1" /></linearGradient><path id="path_2"
        transform="translate(0.1673263725593719 0.25636078515040367) rotate(0 82.17937140378228 40.7172272509068)"
        d="M157.01,81.43L164.36,63.07L7.35,0L0,18.36L157.01,81.43Z" /><linearGradient id="linear_1" x1="2.2345678891493623%" y1="11.27440822852165%" x2="97.7654494863223%" y2="88.7249170168639%" gradientUnits="objectBoundingBox"><stop offset="0" stop-color="#D4EEFF" stop-opacity="1" /><stop offset="1" stop-color="#D4EEFF" stop-opacity="1" /></linearGradient><path id="path_3"
        transform="translate(0.21442906687899055 0.3083584915724286) rotate(0 63.86831358580944 64.00415725548132)"
        d="M0,128.01L127.74,128.01L127.74,0L0,0L0,128.01Z" /><path id="path_4"
        transform="translate(0.3457139836893404 0.11951410817156943) rotate(0 250.61770010962252 0.9479504347131565)"
        d="M0,1.9L501.24,1.9L501.24,0L0,0L0,1.9Z" /><linearGradient id="linear_2" x1="52.03988014427764%" y1="-25.777137977204056%" x2="49.49622623550315%" y2="68.74055178865697%" gradientUnits="objectBoundingBox"><stop offset="0" stop-color="#151686" stop-opacity="1" /><stop offset="1" stop-color="#2438B6" stop-opacity="1" /></linearGradient><linearGradient id="linear_3" x1="52.040288559083145%" y1="-25.777137977204056%" x2="49.496602792911226%" y2="68.74055178865697%" gradientUnits="objectBoundingBox"><stop offset="0" stop-color="#151686" stop-opacity="1" /><stop offset="1" stop-color="#2438B6" stop-opacity="1" /></linearGradient><path id="path_5"
        transform="translate(0.2715031285518558 0.34826370812888013) rotate(0 77.66196157153625 110.44252381587376)"
        d="M36.28,13.34C24.56,22.22 15.58,34.94 9.35,51.51C3.12,68.08 0,87.78 0,110.6C0,133.22 3.15,152.85 9.47,169.53C15.78,186.18 24.81,198.91 36.53,207.7C39.28,209.77 42.14,211.59 45.12,213.18L45.12,220.89L77.79,220.89C93.57,220.89 107.28,216.49 118.92,207.7C130.55,198.91 139.53,186.18 145.85,169.53C152.17,152.85 155.32,133.22 155.32,110.6C155.32,87.78 152.2,68.08 145.97,51.51C139.74,34.94 130.8,22.22 119.16,13.34C107.53,4.44 93.74,0 77.79,0L45.12,0L45.12,7.69C42.05,9.3 39.11,11.2 36.28,13.34Z" /><linearGradient id="linear_4" x1="51.63277387611351%" y1="94.26860245369888%" x2="49.39610607002278%" y2="33.69950019069724%" gradientUnits="objectBoundingBox"><stop offset="0" stop-color="#151686" stop-opacity="1" /><stop offset="1" stop-color="#2438B6" stop-opacity="1" /></linearGradient><path id="path_6"
        transform="translate(0.3455128702607895 0.016526402378498905) rotate(0 7.998079940279824 35.94653845743537)"
        d="M2.54,71.89L16,61.54L12.48,0L0,36.63L2.54,71.89Z" /></defs><g opacity="1" transform="translate(-6.103515488575795e-7 0.000006713867179541921)  rotate(0 336.44102311571567 197.7029603157667)"><g opacity="1" transform="translate(0 19.345275496052828)  rotate(0 329.2435897435898 136.08)"><path id="Fill 1" fill-rule="evenodd" style="fill:#C3E4FF" transform="translate(147.97823533126504 0.19825127451169)  rotate(0 14.70787778748428 14.728417602265452)" opacity="1" d="M14.71,0C6.59,0 0,6.59 0,14.73C0,22.86 6.59,29.46 14.71,29.46C22.83,29.46 29.42,22.86 29.42,14.73C29.42,6.59 22.83,0 14.71,0Z " /><path id="Fill 3" fill-rule="evenodd" style="fill:#C3E4FF" transform="translate(559.0252228292388 155.20838423182096)  rotate(0 14.707877787484584 14.728216127393058)" opacity="1" d="M14.71,0C6.59,0 0,6.6 0,14.73C0,22.86 6.59,29.46 14.71,29.46C22.83,29.46 29.42,22.86 29.42,14.73C29.42,6.6 22.83,0 14.71,0Z " /><path id="Fill 5" fill-rule="evenodd" style="fill:#D6EEFF" transform="translate(628.987665867962 0.19825127451169)  rotate(0 14.707877787484449 14.728417602265452)" opacity="1" d="M14.71,0C6.59,0 0,6.59 0,14.73C0,22.86 6.59,29.46 14.71,29.46C22.83,29.46 29.42,22.86 29.42,14.73C29.42,6.59 22.83,0 14.71,0Z " /><g opacity="1" transform="translate(0 134.585214810792)  rotate(0 14.752991452991452 15.119999999999994)"><mask id="mask-0" fill="white"><use xlink:href="#path_0"></use></mask><g mask="url(#mask-0)"></g><g mask="url(#mask-0)"><path id="Fill 7" fill-rule="evenodd" style="fill:#D6EEFF" transform="translate(-0.00008047756063049447 0.07313537870702737)  rotate(0 14.707877787484371 14.728417602265429)" opacity="1" d="M14.71,0C6.59,0 0,6.59 0,14.73C0,22.86 6.59,29.46 14.71,29.46C22.83,29.46 29.42,22.86 29.42,14.73C29.42,6.59 22.83,0 14.71,0Z " /></g></g><path id="Fill 10" fill-rule="evenodd" style="fill:#C3E4FF" transform="translate(287.33490959185843 242.19850490416414)  rotate(0 14.70727420577998 14.727813177648024)" opacity="1" d="M14.66,0C9.99,0.01 5.84,2.21 3.15,5.62C1.17,8.12 0,11.29 0,14.73C0,22.86 6.58,29.46 14.71,29.46C15.32,29.46 15.92,29.42 16.51,29.35C23.11,28.54 28.35,23.36 29.27,16.8C29.37,16.13 29.41,15.43 29.41,14.73C29.41,6.59 22.83,0 14.66,0Z " /><path id="Fill 12" fill-rule="evenodd" style="fill:#D6EEFF" transform="translate(303.4987069287647 258.5985192283488)  rotate(0 6.552885374585912 6.47338765250106)" opacity="1" d="M10.26,0C4.59,0 0,4.61 0,10.28C0,11.2 0.12,12.1 0.35,12.95C6.94,12.14 12.18,6.96 13.11,0.4C12.2,0.14 11.25,0 10.26,0Z " /><path id="Fill 14" fill-rule="evenodd" style="fill:#D6EEFF" transform="translate(290.48146149628917 242.1983840192409)  rotate(0 5.780300792504204 3.7957865973579827)" opacity="1" d="M11.51,0C6.84,0.02 2.69,2.21 0,5.62C1.23,6.83 2.92,7.59 4.78,7.59C5.86,7.59 6.88,7.34 7.79,6.89C9.03,6.27 10.05,5.29 10.72,4.09C11.25,3.11 11.56,1.99 11.56,0.81C11.56,0.53 11.54,0.26 11.51,0Z " /><path id="Fill 16" fill-rule="evenodd" style="fill:#D6EEFF" transform="translate(298.26348065443125 246.26499314017508)  rotate(0 2.618136241310708 2.621792515468178)" opacity="1" d="M2.62,0C1.17,0 0,1.17 0,2.62C0,4.07 1.17,5.24 2.62,5.24C4.06,5.24 5.24,4.07 5.24,2.62C5.24,1.17 4.06,0 2.62,0Z " /></g><g opacity="1" transform="translate(4.319653069038184 0)  rotate(0 334.2811965811966 197.7029603157667)"><g opacity="1" transform="translate(153.24843256036598 139.06363345423523)  rotate(0 98.95299145299144 49.32)"><mask id="mask-1" fill="white"><use xlink:href="#path_1"></use></mask><g mask="url(#mask-1)"></g><g mask="url(#mask-1)"><path id="Fill 19" fill-rule="evenodd" fill="url(#linear_0)" transform="translate(0.1094057051349559 0.28054576488159894)  rotate(0 98.7847038594402 49.10881059313)" opacity="1" d="M188.58,98.22L197.57,75.76L8.99,0L0,22.46L188.58,98.22Z " /></g></g><g opacity="1" transform="translate(286.78774912215465 136.24205248559892)  rotate(0 82.40085470085467 41.04)"><mask id="mask-2" fill="white"><use xlink:href="#path_2"></use></mask><g mask="url(#mask-2)"></g><g mask="url(#mask-2)"><path id="Fill 22" fill-rule="evenodd" fill="url(#linear_1)" transform="translate(0.1673263725593719 0.25636078515040367)  rotate(0 82.17937140378228 40.7172272509068)" opacity="1" d="M157.01,81.43L164.36,63.07L7.35,0L0,18.36L157.01,81.43Z " /></g></g><g opacity="1" transform="translate(0 0)  rotate(0 334.2811965811966 155.88)"><path id="Fill 25" fill-rule="evenodd" style="fill:#D6EEFF" transform="translate(437.76756577778104 198.85662630077383)  rotate(0 9.87346739177192 9.894370676912116)" opacity="1" d="M13.55,0.71C8.49,-1.32 2.74,1.14 0.71,6.21C-1.32,11.29 1.14,17.04 6.2,19.08C11.26,21.11 17.01,18.64 19.04,13.58C21.06,8.5 18.61,2.74 13.55,0.71Z " /><path id="Fill 27" fill-rule="evenodd" style="fill:#D6EEFF" transform="translate(334.3557096269714 214.22500884783727)  rotate(0 12.078610295319528 12.104319571194154)" opacity="1" d="M16.57,0.87C10.38,-1.61 3.35,1.4 0.87,7.6C-1.61,13.81 1.4,20.85 7.59,23.34C13.78,25.82 20.81,22.81 23.29,16.61C25.77,10.4 22.76,3.36 16.57,0.87Z " /><path id="Fill 29" fill-rule="evenodd" style="fill:#AAD5FF" transform="translate(339.4791442199917 219.35965924622948)  rotate(0 6.955032294525064 6.969749789401067)" opacity="1" d="M9.54,0.5C5.98,-0.93 1.93,0.81 0.5,4.38C-0.93,7.95 0.8,12.01 4.37,13.44C7.93,14.87 11.98,13.13 13.41,9.56C14.84,5.99 13.11,1.93 9.54,0.5Z " /><path id="Fill 31" fill-rule="evenodd" style="fill:#AAD5FF" transform="translate(442.33166010605566 203.43027405406545)  rotate(0 5.309424763916512 5.320725855258456)" opacity="1" d="M7.28,0.38C4.56,-0.71 1.47,0.62 0.38,3.34C-0.71,6.07 0.61,9.17 3.33,10.26C6.06,11.35 9.15,10.03 10.24,7.3C11.33,4.57 10.01,1.48 7.28,0.38Z " /><path id="Fill 33" fill-rule="evenodd" style="fill:#D6EEFF" transform="translate(149.71157136039272 193.60257662150642)  rotate(0 5.036684704779372 15.312719916791309)" opacity="1" d="M5.04,0C5.04,8.46 2.78,15.31 0,15.31C2.78,15.31 5.04,22.17 5.04,30.63C5.04,22.17 7.29,15.31 10.07,15.31C7.29,15.31 5.04,8.46 5.04,0Z " /><path id="Fill 35" fill-rule="evenodd" style="fill:#C3E4FF" transform="translate(61.67340377857656 238.07359488478792)  rotate(0 3.6323096331663804 3.640040991039109)" opacity="1" d="M3.63,0C1.63,0 0,1.63 0,3.64C0,5.65 1.63,7.28 3.63,7.28C5.64,7.28 7.26,5.65 7.26,3.64C7.26,1.63 5.64,0 3.63,0Z " /><path id="Fill 37" fill-rule="evenodd" style="fill:#C3E4FF" transform="translate(225.85874658803928 229.65923735331796)  rotate(0 3.632309633166301 3.6400409910390636)" opacity="1" d="M3.63,0C1.63,0 0,1.63 0,3.64C0,5.65 1.63,7.28 3.63,7.28C5.64,7.28 7.26,5.65 7.26,3.64C7.26,1.63 5.64,0 3.63,0Z " /><path id="Fill 39" fill-rule="evenodd" style="fill:#AAD5FF" transform="translate(188.16478068195977 108.13507520802216)  rotate(0 6.14441746927082 6.15749583955626)" opacity="1" d="M6.14,0C2.75,0 0,2.76 0,6.16C0,9.56 2.75,12.31 6.14,12.31C9.54,12.31 12.29,9.56 12.29,6.16C12.29,2.76 9.54,0 6.14,0Z " /><path id="Fill 41" fill-rule="evenodd" style="fill:#D6EEFF" transform="translate(239.83536564171575 19.50615355237893)  rotate(0 3.6323096331665057 3.639839449541282)" opacity="1" d="M3.63,0C1.63,0 0,1.63 0,3.64C0,5.65 1.63,7.28 3.63,7.28C5.64,7.28 7.26,5.65 7.26,3.64C7.26,1.63 5.64,0 3.63,0Z " /><path id="Fill 43" fill-rule="evenodd" style="fill:#D6EEFF" transform="translate(151.11586598663433 56.11999590889687)  rotate(0 3.632309633166392 3.6398394495413355)" opacity="1" d="M3.63,0C1.63,0 0,1.63 0,3.64C0,5.65 1.63,7.28 3.63,7.28C5.64,7.28 7.26,5.65 7.26,3.64C7.26,1.63 5.64,0 3.63,0Z " /><path id="Fill 45" fill-rule="evenodd" style="fill:#D6EEFF" transform="translate(0.21893207832705347 21.779985038404135)  rotate(0 3.632309633166368 3.640040991039034)" opacity="1" d="M3.63,0C1.63,0 0,1.63 0,3.64C0,5.65 1.63,7.28 3.63,7.28C5.64,7.28 7.26,5.65 7.26,3.64C7.26,1.63 5.64,0 3.63,0Z " /><path id="Fill 47" fill-rule="evenodd" style="fill:#D6EEFF" transform="translate(617.4493580284568 10.860345764881577)  rotate(0 3.632309633166642 3.6398394495412667)" opacity="1" d="M3.63,0C1.63,0 0,1.63 0,3.64C0,5.65 1.63,7.28 3.63,7.28C5.64,7.28 7.26,5.65 7.26,3.64C7.26,1.63 5.64,0 3.63,0Z " /><path id="Fill 49" fill-rule="evenodd" style="fill:#D6EEFF" transform="translate(660.5112022334632 73.58775875293364)  rotate(0 3.632309633166142 3.639839449541239)" opacity="1" d="M3.63,0C1.63,0 0,1.63 0,3.64C0,5.65 1.63,7.28 3.63,7.28C5.64,7.28 7.26,5.65 7.26,3.64C7.26,1.63 5.64,0 3.63,0Z " /><path id="Fill 51" fill-rule="evenodd" style="fill:#D6EEFF" transform="translate(472.18693860265745 123.5210756133988)  rotate(0 3.63230963316646 3.639839449541398)" opacity="1" d="M3.63,0C1.63,0 0,1.63 0,3.64C0,5.65 1.63,7.28 3.63,7.28C5.64,7.28 7.26,5.65 7.26,3.64C7.26,1.63 5.64,0 3.63,0Z " /><path id="Fill 53" fill-rule="evenodd" style="fill:#D6EEFF" transform="translate(483.8817649186132 18.14026651376146)  rotate(0 3.6323096331663693 3.6400409910389984)" opacity="1" d="M3.63,0C1.63,0 0,1.63 0,3.64C0,5.65 1.63,7.28 3.63,7.28C5.64,7.28 7.26,5.65 7.26,3.64C7.26,1.63 5.64,0 3.63,0Z " /><path id="Fill 55" fill-rule="evenodd" style="fill:#C3E4FF" transform="translate(639.415529813043 241.23328187006612)  rotate(0 3.6323096331657325 3.6400409910392226)" opacity="1" d="M3.63,0C1.63,0 0,1.63 0,3.64C0,5.65 1.63,7.28 3.63,7.28C5.64,7.28 7.26,5.65 7.26,3.64C7.26,1.63 5.64,0 3.63,0Z " /><path id="Fill 57" fill-rule="evenodd" style="fill:#E8F6FF" transform="translate(295.478302819642 7.085594436739911)  rotate(0 6.0305872687074284 18.33443159270325)" opacity="1" d="M6.03,0C6.03,10.12 3.33,18.33 0,18.33C3.33,18.33 6.03,26.54 6.03,36.67C6.03,26.54 8.73,18.33 12.06,18.33C8.73,18.33 6.03,10.12 6.03,0Z " /><path id="Fill 59" fill-rule="evenodd" style="fill:#E8F6FF" transform="translate(483.84982810615844 226.3292074941327)  rotate(0 7.296797414901768 22.183874199914797)" opacity="1" d="M7.3,0C7.3,12.25 4.03,22.18 0,22.18C4.03,22.18 7.3,32.12 7.3,44.37C7.3,32.12 10.56,22.18 14.59,22.18C10.56,22.18 7.3,12.25 7.3,0Z " /><path id="Fill 61" fill-rule="evenodd" style="fill:#D6EEFF" transform="translate(197.1556771736536 270.69687527736295)  rotate(0 6.708339522944424 20.395596490292338)" opacity="1" d="M6.71,0C6.71,11.26 3.71,20.4 0,20.4C3.71,20.4 6.71,29.53 6.71,40.79C6.71,29.53 9.71,20.4 13.42,20.4C9.71,20.4 6.71,11.26 6.71,0Z " /><path id="Fill 63" fill-rule="evenodd" style="fill:#D6EEFF" transform="translate(652.7030538151116 149.19504393001927)  rotate(0 5.720269248443856 17.391418924685343)" opacity="1" d="M5.72,0C5.72,9.6 3.16,17.39 0,17.39C3.16,17.39 5.72,25.18 5.72,34.78C5.72,25.18 8.28,17.39 11.44,17.39C8.28,17.39 5.72,9.6 5.72,0Z " /><path id="Fill 65" fill-rule="evenodd" style="fill:#D6EEFF" transform="translate(373.4401647358417 300.4171519362069)  rotate(0 3.1072024712051416 3.1142192233837704)" opacity="1" d="M3.11,0C1.39,0 0,1.39 0,3.11C0,4.83 1.39,6.23 3.11,6.23C4.82,6.23 6.21,4.83 6.21,3.11C6.21,1.39 4.82,0 3.11,0Z " /><path id="Fill 67" fill-rule="evenodd" style="fill:#D6EEFF" transform="translate(329.9783059214376 81.63809203115)  rotate(0 4.400764043682148 4.409929512481397)" opacity="1" d="M4.4,0C1.97,0 0,1.97 0,4.41C0,6.85 1.97,8.82 4.4,8.82C6.83,8.82 8.8,6.85 8.8,4.41C8.8,1.97 6.83,0 4.4,0Z " /><path id="Fill 69" fill-rule="evenodd" style="fill:#C3E4FF" transform="translate(264.4405880585105 61.23661052912317)  rotate(0 2.713422378090126 2.719197887774669)" opacity="1" d="M2.71,0C1.21,0 0,1.22 0,2.72C0,4.22 1.21,5.44 2.71,5.44C4.21,5.44 5.43,4.22 5.43,2.72C5.43,1.22 4.21,0 2.71,0Z " /><path id="Fill 71" fill-rule="evenodd" style="fill:#D6EEFF" transform="translate(367.8881872044147 21.757613932152776)  rotate(0 7.961477296282441 7.9786248133134325)" opacity="1" d="M7.96,0C3.56,0 0,3.57 0,7.98C0,12.38 3.56,15.96 7.96,15.96C12.36,15.96 15.92,12.38 15.92,7.98C15.92,3.57 12.36,0 7.96,0Z " /><path id="Fill 73" fill-rule="evenodd" style="fill:#AAD5FF" transform="translate(584.1831455881722 302.62705445914247)  rotate(0 4.0095984251390755 4.018334382334)" opacity="1" d="M4.01,0C1.8,0 0,1.8 0,4.02C0,6.24 1.8,8.04 4.01,8.04C6.22,8.04 8.02,6.24 8.02,4.02C8.02,1.8 6.22,0 4.01,0Z " /><path id="Fill 75" fill-rule="evenodd" style="fill:#AAD5FF" transform="translate(127.70324620118168 295.3640228877752)  rotate(0 2.5213590538179345 2.526725757414192)" opacity="1" d="M2.52,0C1.13,0 0,1.13 0,2.53C0,3.92 1.13,5.05 2.52,5.05C3.91,5.05 5.04,3.92 5.04,2.53C5.04,1.13 3.91,0 2.52,0Z " /><path id="Fill 77" fill-rule="evenodd" style="fill:#AAD5FF" transform="translate(398.7517377364154 137.14826367612542)  rotate(0 2.521157940389821 2.526725757414215)" opacity="1" d="M2.52,0C1.13,0 0,1.13 0,2.53C0,3.92 1.13,5.05 2.52,5.05C3.91,5.05 5.04,3.92 5.04,2.53C5.04,1.13 3.91,0 2.52,0Z " /><path id="Fill 79" fill-rule="evenodd" style="fill:#D6EEFF" transform="translate(288.4797163966041 164.05993863878834)  rotate(0 2.521157940389685 2.5265242159163903)" opacity="1" d="M2.52,0C1.13,0 0,1.13 0,2.53C0,3.92 1.13,5.05 2.52,5.05C3.91,5.05 5.04,3.92 5.04,2.53C5.04,1.13 3.91,0 2.52,0Z " /><path id="Fill 81" fill-rule="evenodd" style="fill:#D6EEFF" transform="translate(204.44551606392747 120.61142101024126)  rotate(0 2.5213590538180144 2.5265242159162766)" opacity="1" d="M2.52,0C1.13,0 0,1.13 0,2.53C0,3.92 1.13,5.05 2.52,5.05C3.91,5.05 5.04,3.92 5.04,2.53C5.04,1.13 3.91,0 2.52,0Z " /><path id="Fill 83" fill-rule="evenodd" style="fill:#D6EEFF" transform="translate(8.158206452096817 257.55334650096006)  rotate(0 2.5213590538179864 2.5267257574141695)" opacity="1" d="M2.52,0C1.13,0 0,1.13 0,2.53C0,3.92 1.13,5.05 2.52,5.05C3.91,5.05 5.04,3.92 5.04,2.53C5.04,1.13 3.91,0 2.52,0Z " /><path id="Fill 85" fill-rule="evenodd" style="fill:#D6EEFF" transform="translate(178.44669825528993 164.05993863878834)  rotate(0 2.5213590538179576 2.5265242159163903)" opacity="1" d="M2.52,0C1.13,0 0,1.13 0,2.53C0,3.92 1.13,5.05 2.52,5.05C3.91,5.05 5.04,3.92 5.04,2.53C5.04,1.13 3.91,0 2.52,0Z " /><path id="Fill 87" fill-rule="evenodd" style="fill:#D6EEFF" transform="translate(68.93810349028077 180.9104201834865)  rotate(0 3.060946382636183 3.06746159590341)" opacity="1" d="M3.06,0C1.37,0 0,1.37 0,3.07C0,4.76 1.37,6.13 3.06,6.13C4.75,6.13 6.12,4.76 6.12,3.07C6.12,1.37 4.75,0 3.06,0Z " /><g opacity="1" transform="translate(10.457898284959377 0)  rotate(0 64.04957264957265 64.44)"><mask id="mask-3" fill="white"><use xlink:href="#path_3"></use></mask><g mask="url(#mask-3)"></g><g mask="url(#mask-3)"><path id="Fill 89" fill-rule="evenodd" style="fill:#D6EEFF" transform="translate(0.21442906687899055 0.3082397737320464)  rotate(0 63.86831358580944 64.00421661440149)" opacity="1" d="M127.21,72.15C131.7,37.08 106.98,5.02 71.99,0.52C37.01,-3.97 5.02,20.8 0.52,55.86C-3.96,90.92 20.76,122.98 55.74,127.48C90.73,131.98 122.72,107.21 127.21,72.15Z " /></g></g><path id="Fill 92" fill-rule="evenodd" style="fill:#E8F6FF" transform="translate(88.83653420205945 18.005092362363616)  rotate(0 9.671601926019804 9.692147450389733)" opacity="1" d="M19.26,10.92C19.94,5.62 16.2,0.76 10.9,0.08C5.6,-0.6 0.76,3.15 0.08,8.46C-0.6,13.77 3.14,18.62 8.44,19.3C13.74,19.99 18.58,16.23 19.26,10.92Z " /><path id="Fill 94" fill-rule="evenodd" style="fill:#E8F6FF" transform="translate(94.61706136107966 44.431613867295376)  rotate(0 3.8558764614119694 3.863892609057845)" opacity="1" d="M7.68,4.36C7.95,2.24 6.46,0.3 4.35,0.03C2.23,-0.24 0.3,1.26 0.03,3.37C-0.24,5.49 1.25,7.42 3.37,7.7C5.48,7.97 7.41,6.47 7.68,4.36Z " /><path id="Fill 96" fill-rule="evenodd" style="fill:#E8F6FF" transform="translate(51.49098152699272 95.40646379618713)  rotate(0 3.8558764614119925 3.8639296934562024)" opacity="1" d="M7.68,4.36C7.95,2.24 6.46,0.3 4.35,0.03C2.23,-0.24 0.3,1.26 0.03,3.37C-0.24,5.49 1.25,7.42 3.37,7.7C5.48,7.97 7.41,6.47 7.68,4.36Z " /><path id="Fill 98" fill-rule="evenodd" style="fill:#C3E4FF" transform="translate(10.671829466641368 0.31131003856273426)  rotate(0 36.40039108644615 43.89047345842292)" opacity="1" d="M59.81,66.11C32.24,74.57 24.61,48.08 56.65,37.56C76.52,31.05 74.25,13.02 69.66,0.27C35.6,-2.86 4.91,21.58 0.52,55.86C-0.91,67.07 0.64,77.98 4.56,87.78C5.9,85.91 6.93,84.09 7.45,82.64C9.78,76.13 9.17,62.76 23.77,74.67C43.72,90.93 59.81,66.11 59.81,66.11Z " /><path id="Fill 100" fill-rule="evenodd" style="fill:#C3E4FF" transform="translate(27.61263240474961 44.28781704181785)  rotate(0 55.39820987446096 42.01529399585223)" opacity="1" d="M93.6,2.39C80.32,-4.94 77.6,15.59 88.37,22.79C94.45,26.85 99.82,34.28 92.3,39.7C84.06,45.65 69.91,19.44 56.83,29.08C39.26,42.02 70.07,61.45 58.31,67.25C50.96,70.88 45.69,60.7 45.69,60.7C45.69,60.7 29.63,75.69 15.08,63.19C10.24,59.03 3.52,58.55 0,63.43C9.82,74.11 23.31,81.51 38.8,83.5C73.79,88 105.79,63.22 110.28,28.17C111.53,18.37 110.5,8.8 107.59,0C105.51,3.44 101.39,6.69 93.6,2.39Z " /><path id="Fill 102" fill-rule="evenodd" style="fill:#D6EEFF" transform="translate(479.4518560545993 21.757739046819385)  rotate(0 64.15412129301667 64.29047780209409)" opacity="1" d="M75.02,0.94C40.11,-5.08 6.94,18.41 0.94,53.4C-5.07,88.39 18.37,121.62 53.29,127.64C88.2,133.66 121.37,110.17 127.37,75.18C133.38,40.19 109.93,6.96 75.02,0.94Z " /><path id="Fill 104" fill-rule="evenodd" style="fill:#E8F6FF" transform="translate(493.11608910423274 39.18518940153618)  rotate(0 57.31310375671979 24.214872890557384)" opacity="1" d="M113.3,33.75C99.12,34.27 79.72,31.87 61.67,19.17C40.41,4.23 19.33,0.62 6.59,0C4.22,2.22 2.02,4.63 0,7.2C12.15,14.25 14.66,26.56 39.84,39.27C66.67,52.8 100.86,48.1 114.63,45.37C114.53,41.42 114.09,37.53 113.3,33.75Z " /><path id="Fill 106" fill-rule="evenodd" style="fill:#E8F6FF" transform="translate(479.45133881139935 62.54787982184771)  rotate(0 21.905565169299827 14.679746372554849)" opacity="1" d="M4.44,0C2.88,4 1.69,8.21 0.94,12.61C0.28,16.4 -0.01,20.16 0,23.88C25.42,33.88 42.87,27.21 43.81,26.83C34.1,30.38 13.49,9.78 4.44,0Z " /><path id="Fill 108" fill-rule="evenodd" style="fill:#E8F6FF" transform="translate(481.81323286053436 94.48132130016967)  rotate(0 60.82474533275227 16.564072260092384)" opacity="1" d="M61.8,1.56C39.96,7.48 13.75,8.68 0,8.87C1.64,14.74 4.11,20.32 7.29,25.45C16.87,26.3 28.68,26.1 41.49,23.16C64.3,17.93 94.72,27.18 110.74,33.13C115.31,27.73 119.03,21.53 121.65,14.7C105.84,8.65 84.19,-4.51 61.8,1.56Z " /><path id="Fill 110" fill-rule="evenodd" style="fill:#E8F6FF" transform="translate(525.8407433040986 130.8007897914752)  rotate(0 27.864466639988358 6.258390027987696)" opacity="1" d="M0,1.22C10.91,-0.7 31.11,6.16 46.9,12.52C49.98,10.94 52.94,9.11 55.73,7.06C24.06,-3.65 1.35,0.93 0,1.22Z " /><path id="Fill 112" fill-rule="evenodd" style="fill:#E8F6FF" transform="translate(540.8279534881891 29.162461956679536)  rotate(0 30.61958175586051 15.20736824824442)" opacity="1" d="M40.66,5C12.23,-1.02 -8.1,-3.01 3.16,7.12C23.61,25.53 48.95,29.58 61.24,30.41C56.69,20.36 49.6,11.57 40.66,5Z " /><path id="Fill 114" fill-rule="evenodd" style="fill:#E8F6FF" transform="translate(497.8741110424027 131.12035901962872)  rotate(0 26.47457173523194 9.609337666533747)" opacity="1" d="M0,0C9.1,9.29 21.08,15.91 34.87,18.28C40.99,19.34 47.07,19.48 52.95,18.82C33.44,4.08 11.11,0.72 0,0Z " /><path id="Fill 116" fill-rule="evenodd" style="fill:#E8F6FF" transform="translate(513.0500096932502 25.032945428845725)  rotate(0 8.356262956540013 4.6052232238105555)" opacity="1" d="M10.34,0C6.75,1.2 3.29,2.71 0,4.5C6.37,8.09 14.67,9.03 16.71,9.21C15.19,8.66 12.65,4.45 10.34,0Z " /><path id="Fill 118" fill-rule="evenodd" style="fill:#E8F6FF" transform="translate(529.770942147643 34.06959381582046)  rotate(0 0.2310793294121595 0.2015414977597544)" opacity="1" d="M0,0.17C0.17,0.23 0.32,0.25 0.46,0.21C0.46,0.21 0.3,0.2 0,0.17Z " /><path  id="Stroke 120" style="stroke:#AAD5FF; stroke-width:14.111999626159673; stroke-opacity:1; stroke-dasharray:0 0" transform="translate(417.7908634413842 59.75980841715445)  rotate(0 125.03652478420663 30.826633858549805)" d="M206.34,27.13C234.07,36.08 251.2,45.41 250.02,52.36C247.92,64.54 190.28,64.78 121.26,52.89C52.24,41 -2.03,21.48 0.05,9.3C1.28,2.16 21.58,-0.88 52.04,0.22 " /></g><g opacity="1" transform="translate(71.59638056626041 94.26579549818635)  rotate(0 253.51769541538494 150.57006256667353)"><g opacity="1" transform="translate(0 298.7401251333471)  rotate(0 250.8 1.2)"><mask id="mask-4" fill="white"><use xlink:href="#path_4"></use></mask><g mask="url(#mask-4)"></g><g mask="url(#mask-4)"><path id="Fill 123" fill-rule="evenodd" style="fill:#121274" transform="translate(0.3457139836893404 0.11951410817156943)  rotate(0 250.61770010962252 0.9480512054620428)" opacity="0.23" d="M250.62,0C112.23,0 0,0.42 0,0.95C0,1.47 112.23,1.9 250.62,1.9C389.01,1.9 501.24,1.47 501.24,0.95C501.24,0.42 389.01,0 250.62,0Z " /></g></g><path id="Fill 126" fill-rule="evenodd" style="fill:#2438B7" transform="translate(36.57440767198827 4.546695572861265)  rotate(0 73.17512098043191 105.89655379240432)" opacity="1" d="M87.2643 54.8423L42.3843 129.382L87.2643 129.382L87.2643 54.8423Z M81.78 164.84L81.78 211.79L120.67 211.79L120.67 164.84L146.35 164.84L146.35 129.38L120.67 129.38L120.67 0L83.27 0L0 136.95L0 164.84L81.78 164.84Z " /><path id="Fill 128" fill-rule="evenodd" style="fill:#2438B7" transform="translate(194.14388291295657 0.0018944900793629316)  rotate(0 77.66256491182257 110.4415161083846)" opacity="1" d="M116.934 111.205C116.934 89.9951 113.564 73.3251 106.834 61.2051C100.094 49.0751 90.4144 43.0251 77.7843 43.0251C65.1544 43.0251 55.4743 49.0751 48.7443 61.2051C42.0143 73.3251 38.6443 89.9951 38.6443 111.205C38.6443 132.215 42.0543 148.665 48.8643 160.585C55.6743 172.505 65.3243 178.465 77.7843 178.465C90.2543 178.465 99.8844 172.505 106.704 160.585C113.524 148.665 116.934 132.215 116.934 111.205Z M36.53 207.7C48.24 216.49 61.99 220.88 77.79 220.88C93.58 220.88 107.28 216.49 118.93 207.7C130.55 198.91 139.53 186.18 145.85 169.53C152.17 152.85 155.33 133.21 155.33 110.6C155.33 87.78 152.2 68.08 145.97 51.51C139.75 34.94 130.8 22.22 119.18 13.34C107.53 4.44 93.74 0 77.79 0C61.83 0 48 4.44 36.27 13.34C24.56 22.22 15.58 34.94 9.35 51.51C3.12 68.08 0 87.78 0 110.6C0 133.21 3.15 152.85 9.47 169.53C15.78 186.18 24.81 198.91 36.53 207.7Z " /><path id="Fill 130" fill-rule="evenodd" style="fill:#2438B7" transform="translate(360.68555109676265 4.546695572861265)  rotate(0 73.1749198670036 105.89655379240432)" opacity="1" d="M87.2639 54.8423L42.3839 129.382L87.2639 129.382L87.2639 54.8423Z M120.67 164.84L146.35 164.84L146.35 129.38L120.67 129.38L120.67 0L83.27 0L0 136.95L0 164.84L81.78 164.84L81.78 211.79L120.67 211.79L120.67 164.84Z " /><path id="Fill 132" fill-rule="evenodd" style="fill:#2438B7" transform="translate(239.26826599587025 0)  rotate(0 16.568729811661182 110.44252381587368)" opacity="1" d="M33.14,220.89L33.14,0L0,0L0,220.89L33.14,220.89Z " /><path id="Fill 134" fill-rule="evenodd" style="fill:#2438B7" transform="translate(36.57440767198827 4.546695572861265)  rotate(0 73.17512098043191 105.89655379240432)" opacity="1" d="M87.2643 54.8423L42.3843 129.382L87.2643 129.382L87.2643 54.8423Z M120.67 211.79L120.67 164.84L146.35 164.84L146.35 129.38L120.67 129.38L120.67 0L83.27 0L0 136.95L0 164.84L81.78 164.84L81.78 211.79L120.67 211.79Z " /><path id="Fill 135" fill-rule="evenodd" style="fill:#2438B7" transform="translate(360.68555109676265 4.546695572861265)  rotate(0 73.1749198670036 105.89655379240432)" opacity="1" d="M87.2639 54.8423L42.3839 129.382L87.2639 129.382L87.2639 54.8423Z M81.78 211.79L120.67 211.79L120.67 164.84L146.35 164.84L146.35 129.38L120.67 129.38L120.67 0L83.27 0L0 136.95L0 164.84L81.78 164.84L81.78 211.79Z " /></g><path id="Fill 137" fill-rule="evenodd" fill="url(#linear_2)" transform="translate(520.8355127395448 263.6416732984849)  rotate(0 16.058102816555355 23.48200298698548)" opacity="1" d="M32.12,46.96L32.12,0L0,0L0,46.96L32.12,46.96Z " /><path id="Fill 139" fill-rule="evenodd" fill="url(#linear_3)" transform="translate(196.7215135040851 263.6416732984849)  rotate(0 16.057901703126653 23.48200298698548)" opacity="1" d="M32.12,46.96L32.12,0L0,0L0,46.96L32.12,46.96Z " /><g opacity="1" transform="translate(265.46972569512246 93.91833795604835)  rotate(0 78.08290598290596 110.87999999999994)"><mask id="mask-5" fill="white"><use xlink:href="#path_5"></use></mask><g mask="url(#mask-5)"></g><g mask="url(#mask-5)"><path id="Fill 141" fill-rule="evenodd" fill="url(#linear_4)" transform="translate(0.2715031285518558 0.34826370812888013)  rotate(0 77.66196157153625 110.44252381587376)" opacity="1" d="M0,110.6C0,133.22 3.15,152.85 9.47,169.53C15.78,186.18 24.81,198.91 36.53,207.7C39.28,209.77 42.14,211.59 45.12,213.18L45.12,220.89L77.79,220.89C93.57,220.89 107.28,216.49 118.92,207.7C130.55,198.91 139.53,186.18 145.85,169.53C152.17,152.85 155.32,133.22 155.32,110.6C155.32,87.78 152.2,68.08 145.97,51.51C139.74,34.94 130.8,22.22 119.16,13.34C107.53,4.44 93.74,0 77.79,0L45.12,0L45.12,7.69C42.05,9.3 39.11,11.2 36.28,13.34C24.56,22.22 15.58,34.94 9.35,51.51C3.12,68.08 0,87.78 0,110.6Z " /></g></g><g opacity="1" transform="translate(76.05450215976678 94.2664807392785)  rotate(0 235.23059213610546 110.4427253573716)"><path id="Fill 144" fill-rule="evenodd" style="fill:#0D0D0F" transform="translate(196.2148685548648 43.02515955835298)  rotate(0 39.142706600031616 67.7199586622572)" opacity="1" d="M68.19,18.18C61.45,6.07 51.77,0 39.14,0C26.51,0 16.83,6.07 10.1,18.18C3.37,30.3 0,46.97 0,68.17C0,89.19 3.41,105.64 10.22,117.56C17.03,129.48 26.67,135.44 39.14,135.44C51.61,135.44 61.25,129.48 68.06,117.56C74.87,105.64 78.29,89.19 78.29,68.17C78.29,46.97 74.92,30.3 68.19,18.18Z " /><path id="Fill 146" fill-rule="evenodd" style="fill:#FFFFFF" transform="translate(226.74392723248985 51.47172342116499)  rotate(0 2.651077215237069 6.523092116492409)" opacity="1" d="M2.65,0C2.65,3.6 1.46,6.52 0,6.52C1.46,6.52 2.65,9.44 2.65,13.05C2.65,9.44 3.84,6.52 5.3,6.52C3.84,6.52 2.65,3.6 2.65,0Z " /><path id="Fill 148" fill-rule="evenodd" style="fill:#FFFFFF" transform="translate(243.81974444291464 60.46361826861543)  rotate(0 4.359938017685113 10.727247759761049)" opacity="1" d="M4.36,0C4.36,5.92 2.41,10.73 0,10.73C2.41,10.73 4.36,15.53 4.36,21.45C4.36,15.53 6.31,10.73 8.72,10.73C6.31,10.73 4.36,5.92 4.36,0Z " /><path id="Fill 150" fill-rule="evenodd" style="fill:#FFFFFF" transform="translate(219.13291019681063 90.30095022935777)  rotate(0 3.2445629429087375 7.983058726264192)" opacity="1" d="M3.24,0C3.24,4.41 1.79,7.98 0,7.98C1.79,7.98 3.24,11.56 3.24,15.97C3.24,11.56 4.7,7.98 6.49,7.98C4.7,7.98 3.24,4.41 3.24,0Z " /><path id="Fill 152" fill-rule="evenodd" style="fill:#FFFFFF" transform="translate(260.85903945471307 94.77972631747393)  rotate(0 1.9713138267147088 4.850297685086435)" opacity="1" d="M1.97,0C1.97,2.68 1.09,4.85 0,4.85C1.09,4.85 1.97,7.02 1.97,9.7C1.97,7.02 2.85,4.85 3.94,4.85C2.85,4.85 1.97,2.68 1.97,0Z " /><path id="Fill 154" fill-rule="evenodd" style="fill:#FFFFFF" transform="translate(236.76665628073755 137.48153269682086)  rotate(0 3.8656012102924935 9.51054173778548)" opacity="1" d="M3.87,0C3.87,5.25 2.13,9.51 0,9.51C2.13,9.51 3.87,13.77 3.87,19.02C3.87,13.77 5.6,9.51 7.73,9.51C5.6,9.51 3.87,5.25 3.87,0Z " /><path id="Fill 156" fill-rule="evenodd" style="fill:#FFFFFF" transform="translate(206.51613970166403 116.62964625560062)  rotate(0 2.9611941220719245 7.285926685513073)" opacity="1" d="M2.96,0C2.96,4.02 1.64,7.29 0,7.29C1.64,7.29 2.96,10.55 2.96,14.57C2.96,10.55 4.29,7.29 5.92,7.29C4.29,7.29 2.96,4.02 2.96,0Z " /><path id="Fill 158" fill-rule="evenodd" style="fill:#285FD7" transform="translate(0 4.546010331768765)  rotate(0 73.1751209804322 105.89655379240469)" opacity="1" d="M87.2643 54.8423L42.3843 129.382L87.2643 129.382L87.2643 54.8423Z M120.67 129.38L120.67 0L83.27 0L0 136.95L0 164.84L81.78 164.84L81.78 211.79L120.67 211.79L120.67 164.84L146.35 164.84L146.35 129.38L120.67 129.38Z " /><path id="Fill 160" fill-rule="evenodd" style="fill:#285FD7" transform="translate(157.5688316779973 0)  rotate(0 77.66377159239367 110.4427253573716)" opacity="1" d="M116.936 111.195C116.936 89.9951 113.566 73.3251 106.836 61.2051C100.096 49.0951 90.416 43.0251 77.786 43.0251C65.156 43.0251 55.476 49.0951 48.746 61.2051C42.016 73.3251 38.646 89.9951 38.646 111.195C38.646 132.215 42.056 148.665 48.866 160.585C55.676 172.505 65.316 178.465 77.786 178.465C90.256 178.465 99.896 172.505 106.706 160.585C113.516 148.665 116.936 132.215 116.936 111.195Z M9.35 51.51C5.08 62.86 2.27 75.7 0.93 89.99C0.31 96.55 0 103.42 0 110.6C0 119.81 0.53 128.53 1.57 136.77C3.09 148.72 5.73 159.66 9.47 169.53C15.8 186.18 24.81 198.91 36.53 207.7C48.24 216.49 61.99 220.89 77.79 220.89C93.58 220.89 107.28 216.49 118.92 207.7C130.55 198.91 139.53 186.18 145.85 169.53C152.16 152.85 155.33 133.22 155.33 110.6C155.33 87.78 152.21 68.08 145.98 51.51C139.75 34.94 130.8 22.22 119.18 13.34C107.53 4.44 93.74 0 77.79 0C61.84 0 48 4.44 36.28 13.34C24.56 22.22 15.58 34.94 9.35 51.51Z " /><path id="Fill 162" fill-rule="evenodd" style="fill:#285FD7" transform="translate(324.1113445382034 4.546010331768765)  rotate(0 73.17491986700375 105.89655379240469)" opacity="1" d="M87.2639 54.8423L42.3839 129.382L87.2639 129.382L87.2639 54.8423Z M81.78 211.79L120.67 211.79L120.67 164.84L146.35 164.84L146.35 129.38L120.67 129.38L120.67 0L83.27 0L0 136.95L0 164.84L81.78 164.84L81.78 211.79Z " /></g><g opacity="1" transform="translate(351.5462731174804 233.38505440580371)  rotate(0 8.276068376068384 36)"><mask id="mask-6" fill="white"><use xlink:href="#path_6"></use></mask><g mask="url(#mask-6)"></g><g mask="url(#mask-6)"></g></g></g><g opacity="1" transform="translate(197.1863247863248 117.98527549605282)  rotate(0 85.63931623931623 137.87999999999994)"><path id="Fill 168" fill-rule="evenodd" style="fill:#EF3C86" transform="translate(3.6947338682027238 252.19472799570983)  rotate(0 7.366240760773076 8.873473635057781)" opacity="1" d="M9.4,17.75L14.73,6.29L4.82,0L0,12.8L9.4,17.75Z " /><path id="Fill 170" fill-rule="evenodd" style="fill:#0B096F" transform="translate(0.05652298560614498 263.36600374511096)  rotate(0 21.358588084708536 6.128722118327756)" opacity="1" d="M0,12.16L42.72,12.26C42.72,12.26 35.15,3.87 15.42,1.46L4.2,0L0,12.16Z " /><path id="Fill 172" fill-rule="evenodd" style="fill:#131318" transform="translate(1.5624654126145783 125.70224153546206)  rotate(0 31.179707556743743 68.62906864147389)" opacity="1" d="M27.78,66.63L0,134.99L18.71,137.26L49.36,76.34L62.36,6.99L32.26,0L27.78,66.63Z " /><path id="Fill 174" fill-rule="evenodd" style="fill:#FF77CA" transform="translate(55.752884999562795 45.368871883089696)  rotate(0 25.14074618618638 13.944893924268886)" opacity="1" d="M1.55,27.89L49.51,8.1C49.51,8.1 50.85,6.36 49.99,3.35C49.14,0.33 46.59,0 46.59,0L0,9.38L1.55,27.89Z " /><path id="Fill 176" fill-rule="evenodd" style="fill:#FF77CA" transform="translate(47.80488672476527 55.709707095746104)  rotate(0 22.43910378187089 18.34947828388658)" opacity="1" d="M0,30.02L40.59,36.7L44.88,2.54L38.27,0L31.95,20.47L2.97,11.96L0,30.02Z " /><path id="Fill 178" fill-rule="evenodd" style="fill:#FE7A00" transform="translate(25.58325001526564 53.464155245293185)  rotate(0 18.751069231337606 8.794654757043505)" opacity="1" d="M0,8.23L37.5,17.59L31.24,0L0,8.23Z " /><path  id="Stroke 180" style="stroke:#0B096F; stroke-width:4.5359998798370365; stroke-opacity:1; stroke-dasharray:0 0" transform="translate(3.189597292792758 16.200484598571176)  rotate(0 4.075953124565555 4.261258982972953)" d="M5.52,0L8.15,6.75L5.79,8.52L0,4.54 " /><path id="Fill 182" fill-rule="evenodd" style="fill:#0B096F" transform="translate(47.2986269104647 15.155922802934297)  rotate(0 3.0174549982270116 8.34875358525981)" opacity="1" d="M0.94,16.7C12.93,9.8 0,0 0,0L0.94,16.7Z " /><path id="Fill 184" fill-rule="evenodd" style="fill:#FF77CA" transform="translate(7.432061245173372 17.138449405221152)  rotate(0 23.462198559611302 23.641228582482537)" opacity="1" d="M40.76,7.03L26.8,0L9.14,6.35L11.61,23.31C9.9,20.78 0.34,19.66 0.01,26.51C-0.42,35.33 16.07,35.32 16.07,35.32L18.77,47.28L33.44,45.37L30.6,34.84C30.6,34.84 44.49,32.12 46.92,29.85C46.92,29.85 45.41,15.92 40.76,7.03Z " /><path id="Fill 186" fill-rule="evenodd" style="fill:#0B096F" transform="translate(5.858821096628134 0.05115206350324707)  rotate(0 25.963974308346597 20.19888442623616)" opacity="1" d="M13.18,40.4C21.96,36.25 16.35,29.39 16.35,29.39C60.36,32.03 52.47,3.71 49.24,3.29C46.01,2.88 43.27,12.83 43.27,12.83C43.27,12.83 37.38,-2.43 27.27,0.34C20.17,2.27 20.58,13.79 20.58,13.79C20.58,13.79 9.98,10.81 2.7,24.25C-4.57,37.69 5.16,38.83 5.16,38.83C10.66,37.51 13.18,40.4 13.18,40.4Z " /><path id="Fill 188" fill-rule="evenodd" style="fill:#FFFFFF" transform="translate(38.88601825316013 41.80027257062462)  rotate(0 4.557505360959135 2.650923780596284)" opacity="1" d="M2.89,4.79C5.01,4.39 7.5,6.38 8.76,4.43C10.08,2.38 7.55,-0.41 3.78,0.05C1.24,0.36 -0.46,2.35 0.11,3.64C0.55,4.62 1.74,5 2.89,4.79Z " /><path id="Fill 190" fill-rule="evenodd" style="fill:#EF3C86" transform="translate(28.55213086603909 51.98280382080402)  rotate(0 5.284638402289724 2.065014287410736)" opacity="1" d="M0,0.56L10.57,4.13L9.48,0L0,0.56Z " /><path id="Fill 192" fill-rule="evenodd" style="fill:#285FD7" transform="translate(44.64702093063432 32.96491726142001)  rotate(0 2.591673161877486 3.9078843201624354)" opacity="1" d="M1.49,7.82L5.18,6.74L0,0L1.49,7.82Z " /><path id="Fill 194" fill-rule="evenodd" style="fill:#EF3C86" transform="translate(57.1592202063725 54.407441838080096)  rotate(0 4.9280100544977925 8.32295098580762)" opacity="1" d="M0,0L5.49,16.65L9.86,14.84L0,0Z " /><path id="Fill 196" fill-rule="evenodd" style="fill:#EF3C86" transform="translate(63.705737270994895 71.67135638313758)  rotate(0 1.8840326607473117 8.647499307042564)" opacity="1" d="M0.7,0L0,16.67L3.77,17.29L0.7,0Z " /><path id="Fill 198" fill-rule="evenodd" style="fill:#0B096F" transform="translate(37.860268192428684 32.81811597909584)  rotate(0 1.943988492375675 1.9536400118801027)" opacity="1" d="M1.1,0.19C0.13,0.66 -0.27,1.83 0.19,2.8C0.66,3.77 1.82,4.18 2.79,3.71C3.75,3.25 4.16,2.08 3.7,1.11C3.23,0.13 2.07,-0.27 1.1,0.19Z " /><path id="Fill 200" fill-rule="evenodd" style="fill:#0B096F" transform="translate(47.1843830979451 30.51723535852415)  rotate(0 1.9439139975595225 1.9537278687749278)" opacity="1" d="M1.1,0.19C0.13,0.66 -0.27,1.83 0.19,2.8C0.66,3.77 1.82,4.18 2.79,3.71C3.75,3.25 4.16,2.08 3.69,1.11C3.23,0.13 2.07,-0.27 1.1,0.19Z " /><path id="Fill 202" fill-rule="evenodd" style="fill:#FFC100" transform="translate(17.166102610216956 60.46965199882606)  rotate(0 29.623237595000855 35.71012723404362)" opacity="1" d="M21.82,68.51C41.57,67.41 59.25,71.42 59.25,71.42L52.34,53.67L39.66,33.66L46.24,35.03L47.37,8.16C47.37,8.16 13.73,-3.78 8.42,1.22C-14.39,22.7 16.38,68.36 16.38,68.36C16.38,68.36 20.46,68.58 21.82,68.51Z " /><path id="Fill 204" fill-rule="evenodd" style="fill:#EF3C86" transform="translate(148.33248084742817 131.58442787933592)  rotate(0 7.381083560399976 8.620285627932684)" opacity="1" d="M14.76,10.57L8.73,0L0,9.09L7.48,17.24L14.76,10.57Z " /><path id="Fill 206" fill-rule="evenodd" style="fill:#2D2D32" transform="translate(35.985846191602505 83.73392170630792)  rotate(0 61.20729293704444 32.5866011324812)" opacity="1" d="M86.88,4C82.12,-1.19 74.02,-1.36 69.05,3.63L33.52,30.4C33.52,30.4 28.49,44.32 0,45.47C0,45.47 10.81,70.5 35.86,61.63C47.14,57.63 79.08,30.16 79.08,30.16L115.01,65.17L122.41,45.41L86.88,4Z " /><path  id="Stroke 208" style="stroke:#0B096F; stroke-width:3.5279999065399164; stroke-opacity:1; stroke-dasharray:0 0" transform="translate(34.50216796403449 29.231885869108037)  rotate(0 1.6790415631975661 1.546543304667597)" d="M3.36,0L0,3.09 " /><path  id="Stroke 210" style="stroke:#0B096F; stroke-width:3.5279999065399164; stroke-opacity:1; stroke-dasharray:0 0" transform="translate(46.86573866513041 27.18122427764261)  rotate(0 2.7497289200663637 0.4438853437015412)" d="M0,0L5.5,0.89 " /><path id="Fill 212" fill-rule="evenodd" style="fill:#0B096F" transform="translate(155.81485648636297 114.91877079251488)  rotate(0 7.515872227281876 20.794072999176457)" opacity="1" d="M7.28,41.59L15.03,0C15.03,0 9.38,7.86 4.32,20.44L0,33.91L7.28,41.59Z " /><path id="Fill 214" fill-rule="evenodd" style="fill:#FE7A00" transform="translate(41.03661021058223 90.1351724358468)  rotate(0 9.750315306247503 4.926280667292268)" opacity="1" d="M0,0L19.5,9.85L15.79,3.99L0,0Z " /><path id="Fill 216" fill-rule="evenodd" style="fill:#FF77CA" transform="translate(85.84455128982752 45.36879518457914)  rotate(0 7.168735253009264 8.035936964088183)" opacity="1" d="M13.64,12.24C14.98,11.48 14.07,8.79 13.49,8.33C12.91,7.87 9.36,6.74 10.2,3.9C10.95,1.36 9.03,-1.12 7.61,0.53C7.35,0.84 7.03,1.82 7.03,1.82C7.03,1.82 3.24,4.78 0.55,9.44C-2.15,14.11 6,15.91 6,15.91C6,15.91 8.52,16.37 9.24,15.74C9.96,15.12 10.85,15.43 11.37,15.09C11.9,14.76 12.3,13 13.64,12.24Z " /><path  id="Stroke 218" style="stroke:#EF3C86; stroke-width:1.5119999599456793; stroke-opacity:1; stroke-dasharray:0 0" transform="translate(84.58975692439014 47.27165232644464)  rotate(0 4.391262327450027 7.470054124226664)" d="M0,14.94L2,8.21C2,8.21 2.01,4.12 8.78,0 " /><path  id="Stroke 220" style="stroke:#EF3C86; stroke-width:1.5119999599456793; stroke-opacity:1; stroke-dasharray:0 0" transform="translate(95.85732487838504 46.660735467851545)  rotate(0 2.1403489002915306 4.45901171783728)" d="M0.07,0C0.07,0 0.66,0.91 0.07,3.16C-0.52,5.41 2.66,6.24 3.48,7.04C4.3,7.83 4.28,8.92 4.28,8.92 " /><path  id="Stroke 222" style="stroke:#EF3C86; stroke-width:1.5119999599456793; stroke-opacity:1; stroke-dasharray:0 0" transform="translate(92.26833832812208 57.9109510449522)  rotate(0 0.2073980380297371 1.8317829782995545)" d="M0,3.66L0.41,0 " /></g></g></svg>